<svg id="Capa_1" enable-background="new 0 0 512 512" height="512" viewBox="0 0 512 512" width="512" xmlns="http://www.w3.org/2000/svg"><g><path d="m401 205v70c0 13.785-11.215 25-25 25h-25l-95 10-95-10h-25c-13.785 0-25-11.215-25-25v-70h-30v70c0 30.327 24.673 55 55 55h240c30.327 0 55-24.673 55-55v-70z" fill="#0a617d"/><path d="m401 205v70c0 13.785-11.215 25-25 25h-25l-95 10v20h120c30.327 0 55-24.673 55-55v-70z" fill="#05303d"/><path d="m116 190h-40c-8.284 0-15 6.716-15 15s6.716 15 15 15h40c8.284 0 15-6.716 15-15s-6.716-15-15-15z" fill="#0a789b"/><path d="m436 190h-40c-8.284 0-15 6.716-15 15s6.716 15 15 15h40c8.284 0 15-6.716 15-15s-6.716-15-15-15z" fill="#0a617d"/><path d="m221 315v-60c0-8.284 6.716-15 15-15h40c8.284 0 15 6.716 15 15v60z" fill="#ff5e90"/><path d="m276 240h-20v75h35v-60c0-8.284-6.716-15-15-15z" fill="#e50058"/><path d="m358.241 221.263-15-180c-1.928-23.138-21.627-41.263-44.845-41.263h-84.792c-23.218 0-42.917 18.125-44.845 41.263l-15 180c-1.042 12.505 3.233 24.973 11.73 34.207s20.566 14.53 33.115 14.53h114.792c12.548 0 24.618-5.296 33.115-14.53 8.496-9.234 12.772-21.702 11.73-34.207z" fill="#ff80aa"/><path d="m313.396 270c12.548 0 24.618-5.296 33.115-14.53s12.772-21.702 11.73-34.207l-15-180c-1.928-23.138-21.627-41.263-44.845-41.263h-42.396v270z" fill="#ff5e90"/><g><path d="m350.744 452.77-79.744-26.582v-61.188c0-8.284-6.716-15-15-15s-15 6.716-15 15v61.188l-79.743 26.581c-6.126 2.043-10.257 7.774-10.257 14.231v30c0 8.284 6.716 15 15 15s15-6.716 15-15v-19.188l60-20v29.188c0 8.284 6.716 15 15 15s15-6.716 15-15v-29.188l60 20v19.188c0 8.284 6.716 15 15 15s15-6.716 15-15v-30c0-6.457-4.131-12.188-10.256-14.23z" fill="#0a789b"/><path d="m361 497v-30c0-6.457-4.131-12.188-10.256-14.23l-79.744-26.582v-61.188c0-8.284-6.716-15-15-15v152c8.284 0 15-6.716 15-15v-29.188l60 20v19.188c0 8.284 6.716 15 15 15s15-6.716 15-15z" fill="#0a617d"/></g><path d="m161 300v30c0 24.813 20.187 45 45 45h100c24.813 0 45-20.187 45-45v-30z" fill="#ff80aa"/><path d="m256 375h50c24.813 0 45-20.187 45-45v-30h-95z" fill="#ff5e90"/></g></svg>